<?xml version="1.0" standalone="no"?>
<!DOCTYPE svg PUBLIC "-//W3C//DTD SVG 20010904//EN"
 "http://www.w3.org/TR/2001/REC-SVG-20010904/DTD/svg10.dtd">
<svg version="1.0" xmlns="http://www.w3.org/2000/svg"
 width="1080.000000pt" height="294.000000pt" viewBox="0 0 1080.000000 294.000000"
 preserveAspectRatio="xMidYMid meet">
<metadata>
Created by potrace 1.16, written by Peter Selinger 2001-2019
</metadata>
<g transform="translate(0.000000,294.000000) scale(0.100000,-0.100000)"
fill="#000000" stroke="none">
<path d="M2845 2606 c-608 -278 -784 -356 -800 -356 -22 0 -308 -59 -313 -65
-3 -2 -22 5 -43 15 -121 62 -225 84 -389 84 -117 -1 -147 -4 -225 -28 -223
-67 -414 -230 -514 -439 -63 -130 -75 -190 -75 -362 -1 -126 3 -163 22 -228
80 -280 298 -498 579 -579 67 -20 101 -23 233 -23 148 1 159 2 250 34 52 17
119 45 147 62 50 28 58 29 172 29 115 0 120 -1 123 -21 2 -18 95 -64 562 -276
308 -139 561 -251 563 -249 2 2 -171 305 -385 672 -214 368 -394 679 -401 691
-11 21 21 69 385 580 218 307 404 566 412 576 13 14 13 17 1 16 -8 0 -144 -60
-304 -133z m-180 -493 c-207 -290 -380 -529 -385 -531 -4 -2 -51 72 -104 163
l-96 166 0 153 0 153 58 26 c31 14 246 111 477 216 230 104 421 188 423 186 2
-2 -165 -241 -373 -532z m-1160 107 c43 -11 111 -36 151 -55 l74 -36 0 -180 0
-180 -27 19 c-131 92 -313 102 -472 27 -96 -46 -213 -161 -259 -256 -109 -221
-69 -469 104 -646 114 -116 255 -172 409 -160 77 6 164 34 219 72 l36 24 0
-32 c0 -30 -5 -35 -62 -64 -118 -60 -182 -76 -320 -81 -74 -2 -155 1 -195 8
-294 51 -556 305 -618 599 -17 84 -20 266 -4 343 18 88 59 186 110 262 88 132
250 265 379 311 135 49 339 60 475 25z m535 -187 l0 -166 -41 59 c-51 73 -79
104 -149 163 -30 25 -56 50 -58 56 -3 10 167 51 221 54 l27 1 0 -167z m-159
-40 c31 -32 73 -82 93 -112 l36 -53 0 -373 0 -373 -52 -77 c-46 -68 -149 -175
-169 -175 -5 0 -9 19 -11 42 -2 23 -8 43 -14 45 -6 2 -28 -11 -50 -28 -172
-139 -436 -117 -603 50 -165 166 -199 429 -80 627 43 71 150 173 213 202 164
77 336 64 445 -34 82 -73 81 -74 81 157 l0 200 28 -20 c15 -11 52 -46 83 -78z
m466 -608 c144 -247 331 -570 416 -718 86 -147 153 -267 150 -267 -3 0 -148
65 -322 144 -174 79 -360 163 -413 186 l-98 44 0 175 c0 166 2 180 27 251 25
70 27 86 27 250 1 165 -1 180 -27 255 -22 66 -37 150 -23 134 2 -2 120 -206
263 -454z m442 -654 c139 -238 250 -435 248 -437 -3 -3 -971 432 -986 443 -2
2 -2 5 0 8 3 2 207 -88 454 -201 248 -113 459 -208 469 -211 15 -5 18 -2 13
10 -4 10 -159 281 -346 603 -187 323 -338 591 -335 596 3 5 56 -78 118 -184
62 -106 226 -388 365 -627z m-749 189 l0 -120 -103 0 -102 0 75 78 c41 43 86
97 100 120 14 23 26 42 28 42 1 0 2 -54 2 -120z"/>
<path d="M1385 1567 c-211 -101 -217 -400 -11 -510 34 -18 58 -22 137 -22 93
0 98 1 146 34 89 61 140 161 130 257 -10 100 -62 183 -145 231 -36 22 -61 27
-126 30 -70 4 -88 1 -131 -20z m215 -44 c112 -46 172 -199 121 -308 -23 -50
-76 -104 -121 -123 -98 -42 -239 2 -294 91 -53 86 -46 207 17 277 74 84 173
106 277 63z"/>
</g>
</svg>
